<svg width="128" height="121" viewBox="0 0 128 121" fill="none" xmlns="http://www.w3.org/2000/svg">
    <g filter="url(#filter0_d)">
        <circle cx="64" cy="70.2821" r="33.9231" fill="#620715"/>
        <circle cx="64.6282" cy="65.8846" r="37.8205" stroke="#950219"/>
        <g clip-path="url(#clip0)">
            <path fill-rule="evenodd" clip-rule="evenodd" d="M61.9935 97.7958L70.5234 97.673C70.4425 97.4406 66.6624 91.8606 66.027 90.6764L63.4714 90.2122L61.9935 97.7958Z" fill="#F7BC14"/>
            <path d="M76.3386 60.2014C75.4958 52.7436 72.5204 17.1227 72.5204 17.1227C72.5204 17.1227 72.4614 15.7401 72.1411 15.2876C71.7786 14.7764 71.2982 15.1032 71.0622 16.1507C70.6239 18.1198 71.492 55.6598 71.492 55.6598C71.492 55.6598 71.5089 57.2938 70.017 57.3273C68.3313 57.3608 68.3734 55.3246 68.3734 55.3246L67.5221 16.2261C67.5221 16.1675 67.5137 16.1088 67.4968 16.0501C67.4378 15.8658 67.2776 15.4468 66.9995 15.3211C66.6624 15.162 66.3252 15.3379 66.0892 16.1758C65.7436 17.3992 65.4823 43.6269 65.5582 53.6487C65.5582 53.8582 65.5582 54.0593 65.5582 54.252C65.5413 53.7409 65.5329 53.5146 65.5329 53.6403C65.5245 53.9085 65.5498 54.2101 65.5666 54.5285C65.5666 55.9614 65.4908 56.8915 64.867 57.277C64.6732 57.3776 64.4372 57.4362 64.1422 57.4362C62.7514 57.4278 62.5912 56.439 62.5912 54.5704C62.6081 54.252 62.625 53.9503 62.6165 53.6822C62.6165 53.5481 62.6081 53.7995 62.5828 54.3609C62.5828 54.1263 62.5828 53.875 62.5912 53.6068C62.6671 43.5849 62.3974 17.3573 62.0602 16.1339C61.8158 15.2876 61.4786 15.1116 61.1415 15.2709C60.8633 15.4049 60.7032 15.8155 60.6442 15.9998C60.6273 16.0585 60.6189 16.1172 60.6189 16.1758L59.7676 55.2743C59.7676 55.2743 59.8098 57.3105 58.124 57.277C56.6321 57.2434 56.6489 55.6095 56.6489 55.6095C56.6489 55.6095 57.5171 18.0696 57.0788 16.1004C56.8428 15.0529 56.3623 14.7261 55.9999 15.2373C55.6796 15.6898 55.6206 17.0724 55.6206 17.0724C55.6206 17.0724 52.6368 52.7018 51.794 60.1511C50.9005 68.0696 52.0636 69.3349 57.534 74.7397C61.1415 78.3093 61.7568 84.6274 61.7652 88.5239C61.7484 89.1691 61.7399 89.7556 61.7231 90.2668C61.6725 91.2807 61.6051 91.9008 61.6051 91.9008H61.6893H66.5022C66.5022 91.9008 65.1368 80.1863 70.5986 74.7732C76.0605 69.3601 77.2321 68.1199 76.3386 60.2014L76.3386 60.2014Z" fill="#FED130"/>
            <path d="M76.3386 60.2014C75.4957 52.7436 72.5204 17.1227 72.5204 17.1227C72.5204 17.1227 72.4613 15.7401 72.1411 15.2875C71.7787 14.7765 71.2982 15.1032 71.0621 16.1507C70.6239 18.1198 71.492 55.6597 71.492 55.6597C71.492 55.6597 71.5089 57.2937 70.017 57.3272C68.3312 57.3607 68.3734 55.3246 68.3734 55.3246L67.522 16.2261C67.522 16.1675 67.5136 16.1088 67.4968 16.0501C67.4378 15.8658 67.2776 15.4468 66.9995 15.3211C66.9409 15.2934 66.8823 15.2759 66.8243 15.2702L67.3924 55.6502C67.5578 67.4103 63.5058 75.5242 63.5058 85.766C63.5058 88.2743 63.3795 90.293 63.3156 91.9009H66.5023C66.5023 91.9009 65.1367 80.1864 70.5987 74.7732C76.0605 69.3602 77.2321 68.12 76.3387 60.2014L76.3386 60.2014Z" fill="#F7BC14"/>
            <path fill-rule="evenodd" clip-rule="evenodd" d="M62.9813 97.714L57.4148 97.673C57.4958 97.4406 61.2759 91.8606 61.9112 90.6764L63.3929 90.7171L62.9813 97.714Z" fill="#FED130"/>
            <path d="M22.0404 48.7279C24.3663 46.2051 26.8037 43.935 29.4874 41.8274C29.803 41.5797 30.2574 41.8763 30.1518 42.2621C28.6475 47.7585 26.0193 53.1903 21.9678 57.2284C21.7858 54.4015 21.7831 51.551 22.0404 48.7279Z" fill="#FF901D"/>
            <path d="M21.968 57.2306C19.6288 54.4243 17.6187 51.5228 15.8076 48.3903C15.6005 48.0322 15.0496 48.1599 15.0286 48.5726C14.7019 54.9892 17.1679 62.4971 23.1761 65.5253C22.5774 62.7966 22.146 60.0198 21.968 57.2306Z" fill="#FF901D"/>
            <path d="M23.1758 65.5232C24.6479 62.512 26.2957 59.7104 28.2272 56.9948C28.4563 56.6727 28.9702 56.8203 28.9869 57.2146C29.2221 62.7574 28.2655 68.6167 25.594 73.4823C24.6037 70.8925 23.7684 68.2323 23.1758 65.5232H23.1758Z" fill="#FF901D"/>
            <path d="M25.5946 73.4842C22.5571 71.5435 19.7825 69.4216 17.121 67.038C16.814 66.7631 16.3325 67.0502 16.4364 67.4477C18.0398 73.5766 22.6251 79.8661 29.1532 80.977C27.7961 78.568 26.5805 76.0675 25.5946 73.4842H25.5946Z" fill="#FF901D"/>
            <path d="M29.152 80.9753C29.6841 77.6902 30.4452 74.5563 31.5045 71.4233C31.6305 71.0507 32.1628 71.0435 32.2949 71.4142C34.1477 76.6143 34.8982 82.481 33.7803 87.8725C32.0811 85.6861 30.5091 83.3885 29.152 80.9753L29.152 80.9753Z" fill="#FF901D"/>
            <path d="M33.7816 87.8742C30.3192 86.899 27.0481 85.6795 23.8085 84.1846C23.4343 84.0118 23.0592 84.4259 23.2749 84.7754C26.6057 90.1755 32.8418 94.8508 39.4098 94.0452C37.3936 92.1248 35.4883 90.0733 33.7816 87.8742Z" fill="#FF901D"/>
            <path d="M39.4083 94.0438C38.9359 90.734 38.7351 87.5058 38.828 84.1874C38.8389 83.7941 39.3465 83.6329 39.5815 83.9496C42.8989 88.4209 45.3738 93.8524 45.9661 99.359C43.6593 97.7473 41.4443 95.9857 39.4083 94.0438Z" fill="#FF901D"/>
            <path d="M105.96 48.7279C103.634 46.2051 101.196 43.935 98.5126 41.8274C98.197 41.5797 97.7426 41.8763 97.8483 42.2621C99.3525 47.7585 101.981 53.1903 106.032 57.2284C106.214 54.4015 106.217 51.551 105.96 48.7279Z" fill="#FF901D"/>
            <path d="M106.032 57.2306C108.371 54.4243 110.381 51.5228 112.192 48.3903C112.4 48.0322 112.95 48.1599 112.971 48.5726C113.298 54.9892 110.832 62.4971 104.824 65.5253C105.423 62.7966 105.854 60.0198 106.032 57.2306Z" fill="#FF901D"/>
            <path d="M104.824 65.5232C103.352 62.512 101.704 59.7104 99.7728 56.9948C99.5437 56.6727 99.0298 56.8203 99.0131 57.2146C98.7779 62.7574 99.7345 68.6167 102.406 73.4823C103.396 70.8925 104.232 68.2323 104.824 65.5232H104.824Z" fill="#FF901D"/>
            <path d="M102.405 73.4842C105.443 71.5435 108.218 69.4216 110.879 67.038C111.186 66.7631 111.668 67.0502 111.564 67.4477C109.96 73.5766 105.375 79.8661 98.8468 80.977C100.204 78.568 101.42 76.0675 102.405 73.4842H102.405Z" fill="#FF901D"/>
            <path d="M98.848 80.9753C98.3159 77.6902 97.5549 74.5563 96.4955 71.4233C96.3695 71.0507 95.8372 71.0435 95.7051 71.4142C93.8523 76.6143 93.1018 82.481 94.2197 87.8725C95.9189 85.6861 97.491 83.3885 98.848 80.9753L98.848 80.9753Z" fill="#FF901D"/>
            <path d="M94.2184 87.8742C97.6808 86.899 100.952 85.6795 104.191 84.1846C104.566 84.0118 104.941 84.4259 104.725 84.7754C101.394 90.1755 95.1582 94.8508 88.5901 94.0452C90.6064 92.1248 92.5117 90.0733 94.2184 87.8742Z" fill="#FF901D"/>
            <path d="M88.5917 94.0438C89.0641 90.734 89.2649 87.5058 89.172 84.1874C89.1611 83.7941 88.6535 83.6329 88.4185 83.9496C85.1011 88.4209 82.6262 93.8524 82.0339 99.359C84.3407 97.7473 86.5557 95.9857 88.5917 94.0438Z" fill="#FF901D"/>
            <path d="M54.0666 102.379C51.4158 101.08 48.9928 99.666 46.8646 98.1776C46.864 98.1772 46.8636 98.177 46.863 98.1766C46.8627 98.1764 46.8625 98.176 46.862 98.1759C44.4869 96.5166 42.3454 94.7814 40.4964 93.018C40.496 93.0176 40.4957 93.017 40.4952 93.0166C38.4198 91.0403 36.5808 89.0244 35.0288 87.0247C35.0285 87.0242 35.0278 87.0236 35.0275 87.023C35.0273 87.0228 35.0273 87.0227 35.0271 87.0225C33.2765 84.7699 31.7638 82.5163 30.5311 80.3239C30.5306 80.3227 30.5298 80.3218 30.5292 80.3206C29.1312 77.838 27.9688 75.3911 27.0745 73.0475C27.0742 73.0465 27.0738 73.0458 27.0733 73.0451V73.0449C26.052 70.3731 25.2617 67.7727 24.724 65.3157C24.724 65.3153 24.7238 65.3151 24.7238 65.315C24.1065 62.5016 23.7116 59.7925 23.5503 57.2634C23.5503 57.2621 23.5499 57.261 23.5499 57.2598C23.3623 54.3471 23.3857 51.5709 23.6194 49.0083C23.6223 48.9772 23.6223 48.9464 23.6231 48.9156C23.9316 44.9529 24.6695 40.9807 25.8198 37.1071C26.0511 36.3282 25.6033 35.5106 24.8199 35.2807C24.0369 35.0506 23.214 35.4956 22.9828 36.2748C21.7614 40.3878 20.9807 44.6081 20.6624 48.8185C20.6603 48.8473 20.6608 48.8754 20.6603 48.9038C20.4264 51.572 20.4043 54.4449 20.5979 57.4482C20.5979 57.4487 20.5979 57.4492 20.5979 57.4497C20.7686 60.1242 21.1838 62.9784 21.8321 65.9338C21.8326 65.936 21.8328 65.9385 21.8332 65.9408C22.4019 68.5401 23.2346 71.2819 24.3081 74.0896C24.3083 74.0899 24.3083 74.0903 24.3085 74.0907C25.2546 76.5698 26.4792 79.1495 27.9484 81.7581C27.9486 81.7585 27.9488 81.7588 27.949 81.7593C27.9495 81.7603 27.95 81.761 27.9505 81.7617C27.9505 81.7617 27.9505 81.7617 27.9507 81.7619C29.2544 84.0796 30.8474 86.4544 32.6861 88.8203C32.6868 88.8213 32.6876 88.8219 32.6882 88.8228C34.3287 90.9363 36.2655 93.0606 38.4451 95.1365C38.4457 95.137 38.4461 95.1376 38.4467 95.1382C40.4038 97.005 42.663 98.8366 45.1616 100.582C45.162 100.582 45.1622 100.582 45.1626 100.583C47.4151 102.158 49.9707 103.65 52.7582 105.017C52.9687 105.12 53.1917 105.169 53.4112 105.169C53.9566 105.169 54.4814 104.868 54.7388 104.349C55.1001 103.62 54.799 102.739 54.0665 102.379L54.0666 102.379Z" fill="#F7BC14"/>
            <path d="M107.339 48.9038C107.339 48.8754 107.339 48.8475 107.337 48.8189C107.019 44.6077 106.238 40.3872 105.017 36.275C104.786 35.4963 103.963 35.0522 103.18 35.2811C102.396 35.511 101.949 36.3289 102.18 37.1077C103.33 40.9804 104.068 44.9524 104.377 48.9155C104.378 48.9465 104.378 48.9775 104.381 49.0087C104.614 51.5703 104.638 54.3468 104.45 57.2606C104.45 57.2611 104.45 57.2618 104.45 57.2621C104.45 57.2627 104.45 57.2631 104.45 57.2637C104.288 59.7916 103.894 62.5005 103.276 65.3152C103.276 65.3154 103.276 65.3158 103.276 65.3159C102.739 67.7729 101.948 70.3733 100.927 73.0449C100.926 73.0453 100.926 73.0455 100.926 73.0459C100.926 73.0466 100.926 73.0473 100.925 73.0478C100.031 75.3912 98.8684 77.8388 97.4692 80.3234C97.469 80.3235 97.4689 80.3239 97.4687 80.3241C96.2362 82.516 94.7235 84.7695 92.9725 87.0227C92.9722 87.0232 92.9718 87.0238 92.9714 87.0244C92.9712 87.0246 92.9712 87.0246 92.971 87.0248C91.4196 89.0237 89.5802 91.0396 87.5046 93.0166C87.5043 93.017 87.5039 93.0176 87.5034 93.018C85.6552 94.7808 83.5134 96.5162 81.1376 98.1759C81.1371 98.1762 81.1364 98.1769 81.1357 98.1774C81.1355 98.1774 81.1353 98.1776 81.1352 98.1776C79.0069 99.6664 76.5839 101.08 73.9331 102.379C73.2004 102.738 72.8993 103.62 73.2607 104.348C73.5182 104.868 74.0428 105.169 74.5883 105.169C74.8078 105.169 75.0308 105.12 75.2411 105.017C78.0282 103.65 80.5835 102.159 82.8359 100.583C82.8367 100.583 82.8375 100.582 82.8382 100.582C85.3372 98.8358 87.5964 97.0043 89.5529 95.138C89.5535 95.1374 89.5539 95.1368 89.5545 95.1362C91.735 93.0591 93.6724 90.9343 95.3125 88.821C95.3127 88.821 95.3127 88.8208 95.3129 88.8207C95.3131 88.8205 95.3133 88.8203 95.3134 88.8201C97.153 86.4526 98.7471 84.0769 100.051 81.759C100.052 81.7575 100.052 81.7559 100.053 81.7545C101.522 79.146 102.746 76.5675 103.691 74.0908C103.691 74.0906 103.691 74.0906 103.691 74.0902C103.691 74.09 103.691 74.09 103.691 74.0897C104.764 71.2835 105.596 68.5434 106.165 65.9453C106.165 65.9447 106.165 65.9443 106.165 65.9437C106.815 62.9835 107.231 60.1258 107.401 57.4496C107.402 57.4475 107.401 57.4456 107.401 57.4437C107.595 54.441 107.573 51.5696 107.339 48.9038L107.339 48.9038Z" fill="#F7BC14"/>
            <path d="M80.6837 105.462H47.448C46.9662 105.462 46.6318 104.985 46.7987 104.535L49.2669 97.8867C49.3672 97.6164 49.6264 97.4369 49.9161 97.4369H78.2155C78.5053 97.4369 78.7644 97.6163 78.8648 97.8867L81.333 104.535C81.4998 104.985 81.1654 105.462 80.6837 105.462H80.6837Z" fill="#FFB125"/>
            <path d="M81.3331 104.535L78.865 97.8867C78.7645 97.6164 78.5055 97.4369 78.2155 97.4369H71.4655L74.4445 105.462H80.6838C81.1655 105.462 81.4999 104.985 81.3332 104.535H81.3331Z" fill="#FF901D"/>
        </g>
    </g>
    <defs>
        <filter id="filter0_d" x="0" y="0" width="128" height="120.462" filterUnits="userSpaceOnUse" color-interpolation-filters="sRGB">
            <feFlood flood-opacity="0" result="BackgroundImageFix"/>
            <feColorMatrix in="SourceAlpha" type="matrix" values="0 0 0 0 0 0 0 0 0 0 0 0 0 0 0 0 0 0 127 0"/>
            <feOffset/>
            <feGaussianBlur stdDeviation="7.5"/>
            <feColorMatrix type="matrix" values="0 0 0 0 0 0 0 0 0 0 0 0 0 0 0 0 0 0 0.1 0"/>
            <feBlend mode="normal" in2="BackgroundImageFix" result="effect1_dropShadow"/>
            <feBlend mode="normal" in="SourceGraphic" in2="effect1_dropShadow" result="shape"/>
        </filter>
        <clipPath id="clip0">
            <rect width="98" height="90.4615" fill="white" transform="translate(15 15)"/>
        </clipPath>
    </defs>
</svg>
